# xmcd
#
# Track frame offsets:
#	150
#	1635
#	20284
#	50396
#	90128
#	104330
#	127987
#	148562
#	184242
#
# Disc length: 3012 seconds
#
# Revision: 0
# Processed by: cddbd v1.5.2PL0 Copyright (c) Steve Scherf et al.
# Submitted via: EasyCDDAExtractor 10.0.2.1
#
DISCID=5f0bc209
DTITLE=Iron Maiden - Football Stadium Ostrava 06-06-07 Disc 1
DYEAR=2007
DGENRE=Hard Rock
TTITLE0=Intro
TTITLE1=Different World
TTITLE2=These Colors Don't Run
TTITLE3=Brighter Than A Thousand Suns
TTITLE4=Wrathchild
TTITLE5=The Trooper
TTITLE6=Children Of The Damned 
TTITLE7=The Reincarnation Of Benjamin Breeg
TTITLE8=For The Greater Good Of God
EXTD=
EXTT0=
EXTT1=
EXTT2=
EXTT3=
EXTT4=
EXTT5=
EXTT6=
EXTT7=
EXTT8=
PLAYORDER=
